<?xml version="1.0" encoding="utf-8"?>
<!-- Generator: Adobe Illustrator 26.0.1, SVG Export Plug-In . SVG Version: 6.00 Build 0)  -->
<svg version="1.1" id="Layer_1" xmlns="http://www.w3.org/2000/svg" xmlns:xlink="http://www.w3.org/1999/xlink" x="0px" y="0px"
	 viewBox="0 0 2376.6 177.8" style="enable-background:new 0 0 2376.6 177.8;" xml:space="preserve">
<style type="text/css">
	.st0{fill-rule:evenodd;clip-rule:evenodd;fill:#76787A;}
	.st1{fill-rule:evenodd;clip-rule:evenodd;fill:#D9782D;}
</style>
<g>
	<path class="st0" d="M85.1,140.5c-1.2,1-4.7,2.6-10.5,4.7c-5.8,2.1-12,3.2-18.2,3.2c-17.2,0-31-4.5-41.2-13.4S0,112.7,0,94.8v-4.6
		c0-16.2,5-29.2,15-39c10-9.8,23.5-14.7,40.6-14.7c6.7,0,12.8,0.9,18.3,2.6s9.2,3.6,11.2,5.6v18.8c-2.6-2.4-6.2-4.4-10.6-6.1
		c-4.6-1.7-9.5-2.5-14.4-2.5c-9,0-15.9,3.2-20.7,9.7c-4.8,6.5-7.2,15.3-7.2,26.6v1.9c0,12.6,1.9,21.5,5.8,26.8
		c3.9,5.2,10.1,7.9,18.8,7.9c5.8,0,11.4-0.9,16.9-2.6c5.5-1.7,9.2-3.5,11.3-5.3L85.1,140.5L85.1,140.5L85.1,140.5z M214.9,15.6
		c0,4.4-1.5,8.2-4.6,11.2c-3,3-6.7,4.6-11.1,4.6c-4.3,0-8-1.5-11.1-4.6c-3-2.9-4.7-7-4.6-11.2c0-4.3,1.5-8,4.6-11
		c2.9-3,6.9-4.6,11.1-4.6c4.3,0,8.1,1.5,11.1,4.6C213.4,7.6,214.9,11.3,214.9,15.6z M213.9,146.1h-29.7V39.3h29.7V146.1z
		 M409.9,146.1h-29.7V71.4c0-2.8-1.2-5.4-3.6-7.8c-2.4-2.4-5.8-3.6-10.2-3.6c-3.9-0.1-7.8,0.8-11.2,2.7c-3.2,1.8-6,4-8.3,6.8v76.7
		h-29.7V39.3h28.6l0.5,17.2c2.2-5.1,6.3-9.5,12.5-13.4c6.1-3.9,13.6-5.8,22.5-5.8c8.9,0,15.9,2.8,21,8.4c5.1,5.6,7.6,14.1,7.6,25.6
		L409.9,146.1L409.9,146.1L409.9,146.1z M539.3,83.1c0.4-10.6,2.8-18.2,7.2-22.6c4.4-4.5,9.4-6.7,15-6.7c6.4,0,11.6,2.3,15.6,6.8
		c4,4.5,6.3,12.1,6.9,22.6L539.3,83.1L539.3,83.1z M611.7,88.4c0-15.4-4.3-27.8-12.9-37.4c-8.6-9.6-21-14.4-37.3-14.4
		c-17,0-30,5.1-39,15.3c-8.9,10.2-13.4,22.7-13.4,37.4V97c0,16.8,4.9,29.6,14.7,38.4c9.8,8.8,22.9,13.1,39.4,13.1
		c8.6,0,16.2-0.8,22.8-2.3c6.3-1.4,12.4-3.8,18.1-6.9v-17.5c-5.9,2.7-12.1,4.9-18.4,6.4c-5.7,1.4-11.6,2.1-17.5,2.2
		c-8.6,0-15.6-2.3-21-7c-5.4-4.7-8.1-13-8.1-25h72.6L611.7,88.4L611.7,88.4z M866,146.1h-29.7V71.4c0-2.9-1.3-5.5-3.9-7.9
		s-5.7-3.5-9.3-3.5c-4.8,0-8.8,1.1-12.1,3.2c-3.3,2.2-6,4.8-8,8.1v74.8h-29.7V71.4c0-3-1.3-5.9-3.6-8c-2.4-2.3-5.7-3.4-9.8-3.4
		c-4.8,0-8.7,0.9-11.9,2.6c-3.1,1.7-5.8,4-8,6.8v76.7h-29.7V39.3h28.6l0.6,17c3.1-5.8,7.8-10.6,13.4-13.9c5.8-3.4,12.9-5.1,21.1-5.1
		c7.4,0,13.3,1.8,17.7,5.3c4.3,3.6,7.5,8.5,9.6,14.7c3.8-7.7,8.6-12.9,14.4-15.6c5.8-2.7,12.5-4.2,20.1-4.4c8.8-0.2,16,2.8,21.7,9.2
		c5.7,6.3,8.6,14.5,8.6,24.4L866,146.1L866,146.1L866,146.1z M1021.8,124.3c-3.6,2.9-7.7,4.4-12.3,4.4c-5.3,0-9.7-1.2-13.1-3.6
		c-3.4-2.4-5.1-7.2-5.1-14.3v-2.9c0-6.9,1.6-11.9,4.9-15c3.2-3.2,7.6-4.8,13.2-4.8c5.9,0,10.4,1.7,13.4,5c3,3.3,4.5,8.2,4.5,14.6
		v2.9C1027.3,116.8,1025.5,121.4,1021.8,124.3L1021.8,124.3z M1055.7,76.4c0-13.7-3.3-23.6-9.9-29.8s-16.7-9.3-30.5-9.3
		c-8.6,0-15.9,0.7-21.9,2.1c-6,1.4-11.5,3.1-16.3,5.1v18.1c3.8-2.2,8.2-4,13.3-5.4c5.7-1.5,11.5-2.3,17.4-2.2
		c6.1,0,10.8,1.3,14.1,3.8c3.3,2.6,5,5.7,5,9.4v10.6c-1.9-1.8-4.8-3.3-8.8-4.5c-4-1.2-8.1-1.8-12.2-1.8c-13.6,0-24.5,3.2-32.6,9.7
		c-8.1,6.5-12.1,15.6-12.1,27.5v1.9c0,12,3,21,9.1,27c6.1,5.9,15,8.9,26.8,8.9c7.2,0,13.5-1.4,18.9-4.3c5.4-2.8,9.2-6.5,11.5-10.9
		l0.4,13.9h27.6L1055.7,76.4L1055.7,76.4z"/>
	<path class="st1" d="M1244,107.5c-3.2,4.1-8.1,6.5-13.3,6.3c-5.7,0-9.6-2.4-11.7-7.2c-2.1-4.8-3.2-9.7-3.2-14.8
		c0-8.9,1.4-15.5,4.2-19.6c2.8-4.2,6.7-6.2,11.8-6.2c6,0,10.3,1.6,13.1,4.9c2.8,3.3,4.2,7.7,4.2,13.2v7.6
		C1249.2,98,1247.4,103.3,1244,107.5L1244,107.5z M1289,23.7c-13.9-13.6-32.1-20.4-54.5-20.4c-22.3,0-41,8.3-55.8,24.8
		c-14.8,16.5-22.3,37.5-22.3,62.8c0,26.4,7.1,47.5,21.2,63.3c14.2,15.7,33.2,23.6,57,23.6c7.5,0,14.1-0.8,19.8-2.3
		c5-1.2,9.8-3,14.4-5.3v-16.5c-4.3,2.3-9.7,4-16.3,5.1c-5.9,1.1-11.9,1.7-17.9,1.8c-17.3,0-31.4-6.1-42.4-18.2
		c-11-12.1-16.4-29.3-16.4-51.6c0-20.6,5.8-37.5,17.4-50.8s25.3-19.9,41-19.9c17.3,0,31.3,5.6,41.9,16.8
		c10.6,11.2,15.9,26.9,15.9,47c0,5.5-1.3,11.8-3.8,18.7c-2.6,6.9-7.1,10.4-13.5,10.4c-2.8,0-4.8-0.9-6.1-2.8
		c-1.3-1.9-1.9-5.3-1.9-10.3c0-8.4,0.1-24.6,0.3-48.6h-17.8V60c-1.5-2.8-3.7-5.1-6.5-6.6c-3.3-1.8-7-2.7-10.7-2.6
		c-11,0-19.5,3.8-25.4,11.5s-8.9,17.4-8.9,29.1c0,14,2.8,23.9,8.4,29.9c5.6,6,12.4,9,20.5,9c7.3,0,12.8-1.4,16.4-4.3
		c3.6-2.9,6.4-7.5,8.2-13.9c1.1,6.6,3.5,11.2,7.3,13.8c3.7,2.7,9.5,4,17.1,4c10.3,0,18.6-5,24.9-15s9.4-20.9,9.4-32.9
		C1309.9,56.8,1302.9,37.4,1289,23.7L1289,23.7z"/>
	<path class="st0" d="M1500.6,146.1h-29.7V71.4c0.1-3-0.9-5.9-2.9-8.1c-1.9-2.2-5-3.2-9.2-3.2c-4.3,0-8.3,0.9-12,2.6
		c-3.6,1.6-6.7,3.9-9.2,6.9v76.7h-29.7V6.3h29.7v49.5c3.3-4.7,7.9-8.9,13.9-12.7c6-3.8,13.4-5.7,22.4-5.7c8.9,0,15.6,2.8,20,8.4
		c4.5,5.6,6.7,14.1,6.7,25.6L1500.6,146.1L1500.6,146.1z M1669.6,123.4c-4.5,4.8-9.9,7.2-16.2,7.2c-7,0-12.5-2.5-16.7-7.4
		c-4.1-4.9-6.2-14.9-6.2-29.9v-1.6c0-13.6,2.1-23.3,6.4-28.9c4.2-5.6,9.7-8.4,16.5-8.4c6.4,0,11.9,2.6,16.3,7.9
		c4.5,5.3,6.7,15.1,6.7,29.4v1.6C1676.4,108.6,1674.2,118.6,1669.6,123.4z M1707.1,89.2c0-15.6-4.8-28.2-14.3-37.9
		s-22.6-14.6-39.3-14.6c-16.6,0-29.7,4.8-39.3,14.5c-9.6,9.6-14.4,22.3-14.4,38.1v6.8c0,16.1,4.8,28.9,14.6,38.3
		s22.8,14.2,39.3,14.2c16.6,0,29.6-4.6,39.1-13.9s14.3-22.1,14.3-38.6L1707.1,89.2L1707.1,89.2L1707.1,89.2z M1962,146.1h-29.7V71.4
		c0-2.9-1.3-5.5-3.9-7.9c-2.5-2.3-5.9-3.6-9.3-3.5c-4.8,0-8.8,1.1-12.1,3.2c-3.2,2.1-6,4.8-8,8.1v74.8h-29.7V71.4c0-3-1.3-5.9-3.6-8
		c-2.4-2.3-5.7-3.4-9.9-3.4c-4.7,0-8.7,0.9-11.9,2.6c-3.1,1.7-5.8,4-8,6.8v76.7h-29.7V39.3h28.6l0.6,17c3.1-5.8,7.6-10.4,13.4-13.9
		c5.8-3.4,12.8-5.1,21.1-5.1c7.4,0,13.3,1.8,17.7,5.3c4.4,3.6,7.5,8.5,9.6,14.7c3.8-7.7,8.6-12.9,14.4-15.6
		c5.8-2.7,12.5-4.2,20.1-4.4c8.8-0.2,16,2.8,21.7,9.2c5.7,6.3,8.6,14.5,8.6,24.4L1962,146.1L1962,146.1L1962,146.1z M2089.5,83.1
		c0.4-10.6,2.8-18.2,7.2-22.6s9.4-6.7,15-6.7c6.4,0,11.6,2.3,15.6,6.8s6.3,12.1,6.9,22.6L2089.5,83.1L2089.5,83.1L2089.5,83.1z
		 M2161.9,88.4c0-15.4-4.3-27.8-12.9-37.4c-8.6-9.6-21-14.4-37.3-14.4c-17,0-30,5.1-39,15.3c-8.9,10.2-13.4,22.7-13.4,37.4V97
		c0,16.8,4.9,29.6,14.7,38.4c9.8,8.8,22.9,13.1,39.4,13.1c8.6,0,16.2-0.8,22.8-2.3c6.3-1.4,12.4-3.8,18.1-6.9v-17.5
		c-5.9,2.7-12.1,4.9-18.4,6.4c-6,1.4-11.8,2.2-17.5,2.2c-8.6,0-15.6-2.3-21-7c-5.4-4.7-8.1-13-8.1-25h72.6L2161.9,88.4L2161.9,88.4z
		 M2376.6,64h-16.2V34l-18.1,17.8h-4.3l-17.5-17.6V64H2308V7.6h8.9l27,27l26.7-27h6V64L2376.6,64z M2300.4,18.8h-18.5V64h-14.5V18.8
		h-18.5V7.6h51.5V18.8z"/>
</g>
</svg>
